<svg width="32" height="12" viewBox="0 0 32 12" fill="none" xmlns="http://www.w3.org/2000/svg">
<rect width="32" height="12" rx="4" fill="#9FF876"/>
<path d="M10.6939 2.72727V10H9.52202L6.09517 5.04616H6.0348V10H4.71733V2.72727H5.89631L9.3196 7.68466H9.38352V2.72727H10.6939ZM12.1294 10V2.72727H16.8596V3.83168H13.4469V5.80611H16.6145V6.91051H13.4469V8.8956H16.888V10H12.1294ZM19.7342 10L17.6816 2.72727H19.0985L20.4089 8.07173H20.4764L21.8755 2.72727H23.1646L24.5673 8.07528H24.6312L25.9416 2.72727H27.3585L25.3059 10H24.0062L22.5502 4.89702H22.4934L21.0339 10H19.7342Z" fill="white"/>
</svg>
